IMDB:  
http://www.imdb.com/title/tt1059887/


Quote:


General
Complete name                            : The Legend of Awesomest Maximus 2011 BRRip x264 AC3-SSN.mkv
Format                                   : Matroska
Format version                           : Version 2
File size                                : 1.28 GiB
Duration                                 : 1h 30mn
Overall bit rate                         : 2 015 Kbps
Encoded date                             : UTC 2012-03-11 11:05:38
Writing application                      : mkvmerge v5.3.0 ('I could have danced') built on Feb  9 2012 10:38:07
Writing library                          : libebml v1.2.3 + libmatroska v1.3.0

Video
ID                                       : 1
Format                                   : AVC
Format/Info                              : Advanced Video Codec
Format profile                           : High@L4.1
Format settings, CABAC                   : Yes
Format settings, ReFrames                : 5 frames
Codec ID                                 : V_MPEG4/ISO/AVC
Duration                                 : 1h 30mn
Bit rate                                 : 1 631 Kbps
Width                                    : 853 pixels (710 SAR)
Height                                   : 480 pixels
Display aspect ratio                     : 16:9
Original display aspect ratio            : 16:9
Frame rate                               : 23.976 fps
Color space                              : YUV
Chroma subsampling                       : 4:2:0
Bit depth                                : 8 bits
Scan type                                : Progressive
Bits/(Pixel*Frame)                       : 0.200
Stream size                              : 1.01 GiB (79%)
Writing library                          : x264 core 122 r2183 c522ad1
Language                                 : English
Default                                  : Yes
Forced                                   : No

Audio
ID                                       : 2
Format                                   : AC-3
Format/Info                              : Audio Coding 3
Mode extension                           : CM (complete main)
Codec ID                                 : A_AC3
Duration                                 : 1h 30mn
Bit rate mode                            : Constant
Bit rate                                 : 384 Kbps
Channel(s)                               : 6 channels
Channel positions                        : Front: L C R, Side: L R, LFE
Sampling rate                            : 48.0 KHz
Bit depth                                : 16 bits
Compression mode                         : Lossy
Stream size                              : 250 MiB (19%)
Default                                  : Yes
Forced                                   : No 

 
http://2.firepic.org/2/images/2012-03/11/d8zjg7537k4u.png
 
http://2.firepic.org/2/images/2012-03/11/aiar62l8013e.png